<svg class="svg-content" preserveAspectRatio="xMinYMin meet" viewBox=
"0 0 23 35">
    <g id="yellowflame2" opacity="0.2">
        <path id="bezier4" stroke="none" fill="rgb(255, 255, 87)" d="M 22.04,17.5 L 21.59,17.5 C 24.46,22.01 23.9,28.03 19.91,31.95 15.27,36.51 7.73,36.51 3.09,31.95 -0.9,28.03 -1.46,22.01 1.41,17.5 L 0.96,17.5 11.5,-0.37 22.04,17.5 Z M 22.04,17.5" />
    </g>
    <g id="yellowflame" opacity="0.9">
        <path id="bezier2" stroke="none" fill="rgb(255, 255, 87)" d="M 19.47,19.5 L 19.14,19.5 C 21.31,23.27 20.88,28.29 17.86,31.57 14.35,35.38 8.65,35.38 5.14,31.57 2.12,28.29 1.69,23.27 3.86,19.5 L 3.53,19.5 11.5,4.57 19.47,19.5 Z M 19.47,19.5" />
    </g>
    <g id="orangeflame" opacity="0.5">
        <path id="bezier" stroke="none" fill="rgb(255, 180, 29)" d="M 17.75,24.5 L 17.49,24.5 C 19.19,27.05 18.86,30.46 16.49,32.67 13.73,35.26 9.27,35.26 6.51,32.67 4.14,30.46 3.81,27.05 5.51,24.5 L 5.25,24.5 11.5,14.39 17.75,24.5 Z M 17.75,24.5" />
    </g>
    <g id="lightorangeflame" opacity="0.3">
        <path id="bezier3" stroke="none" fill="rgb(255, 87, 87)" d="M 16,28.5 L 15.81,28.5 C 17.03,30.08 16.79,32.19 15.09,33.56 13.11,35.16 9.89,35.16 7.91,33.56 6.21,32.19 5.97,30.08 7.19,28.5 L 7,28.5 11.5,22.24 16,28.5 Z M 16,28.5" />
    </g>
</svg>
